<mxfile host="65bd71144e" modified="2020-12-19T14:09:46.036Z" agent="5.0 (X11; Linux x86_64) AppleWebKit/537.36 (KHTML, like Gecko) Code/1.50.1 Chrome/83.0.4103.122 Electron/9.2.1 Safari/537.36" etag="lfMbBV063Ni1K1NxIeBA" version="13.10.0" type="embed">
    <diagram id="v-YHf5ZLK14Uq4fwWTL8" name="Page-1">
        <mxGraphModel dx="850" dy="654" grid="1" gridSize="10" guides="1" tooltips="1" connect="1" arrows="1" fold="1" page="1" pageScale="1" pageWidth="850" pageHeight="1100" background="#ffffff" math="0" shadow="0">
            <root>
                <mxCell id="0"/>
                <mxCell id="1" parent="0"/>
                <mxCell id="48" value="" style="rounded=0;whiteSpace=wrap;html=1;fillColor=none;strokeColor=#333333;strokeWidth=4;" parent="1" vertex="1">
                    <mxGeometry x="250" y="40" width="470" height="390" as="geometry"/>
                </mxCell>
                <mxCell id="5" value="User" style="shape=umlActor;verticalLabelPosition=bottom;verticalAlign=top;html=1;labelBackgroundColor=none;strokeColor=#333333;fontColor=#333333;" parent="1" vertex="1">
                    <mxGeometry x="180" y="255" width="30" height="60" as="geometry"/>
                </mxCell>
                <mxCell id="35" style="edgeStyle=orthogonalEdgeStyle;rounded=0;orthogonalLoop=1;jettySize=auto;html=1;exitX=1;exitY=0.3333333333333333;exitDx=0;exitDy=0;exitPerimeter=0;labelBackgroundColor=none;fontColor=#333333;strokeColor=#333333;entryX=-0.003;entryY=0.573;entryDx=0;entryDy=0;entryPerimeter=0;" parent="1" source="6" target="30" edge="1">
                    <mxGeometry relative="1" as="geometry">
                        <mxPoint x="310" y="80" as="targetPoint"/>
                    </mxGeometry>
                </mxCell>
                <mxCell id="6" value="Weather API" style="shape=umlActor;verticalLabelPosition=bottom;verticalAlign=top;html=1;labelBackgroundColor=none;strokeColor=#333333;fontColor=#333333;" parent="1" vertex="1">
                    <mxGeometry x="180" y="80" width="30" height="60" as="geometry"/>
                </mxCell>
                <mxCell id="30" value="Build and return a response" style="ellipse;whiteSpace=wrap;html=1;labelBackgroundColor=none;strokeColor=#333333;fontColor=#333333;fillColor=#F9F7FC;" parent="1" vertex="1">
                    <mxGeometry x="330" y="60" width="140" height="70" as="geometry"/>
                </mxCell>
                <mxCell id="39" value="Choose city" style="ellipse;whiteSpace=wrap;html=1;labelBackgroundColor=none;strokeColor=#333333;fontColor=#333333;fillColor=#F9F7FC;" parent="1" vertex="1">
                    <mxGeometry x="560" y="200" width="140" height="70" as="geometry"/>
                </mxCell>
                <mxCell id="40" value="Choose date" style="ellipse;whiteSpace=wrap;html=1;labelBackgroundColor=none;strokeColor=#333333;fontColor=#333333;fillColor=#F9F7FC;" parent="1" vertex="1">
                    <mxGeometry x="560" y="255" width="140" height="70" as="geometry"/>
                </mxCell>
                <mxCell id="41" value="Request warmest and hottest days" style="ellipse;whiteSpace=wrap;html=1;labelBackgroundColor=none;strokeColor=#333333;fontColor=#333333;fillColor=#F9F7FC;" parent="1" vertex="1">
                    <mxGeometry x="340" y="330" width="140" height="70" as="geometry"/>
                </mxCell>
                <mxCell id="46" style="edgeStyle=orthogonalEdgeStyle;rounded=0;orthogonalLoop=1;jettySize=auto;html=1;exitX=1;exitY=0.3333333333333333;exitDx=0;exitDy=0;exitPerimeter=0;entryX=0;entryY=0.5;entryDx=0;entryDy=0;labelBackgroundColor=none;strokeColor=#333333;fontColor=#333333;" parent="1" source="5" target="41" edge="1">
                    <mxGeometry relative="1" as="geometry">
                        <mxPoint x="230" y="295" as="sourcePoint"/>
                        <mxPoint x="360" y="215" as="targetPoint"/>
                    </mxGeometry>
                </mxCell>
                <mxCell id="52" value="Get forecast" style="ellipse;whiteSpace=wrap;html=1;labelBackgroundColor=none;strokeColor=#333333;fontColor=#333333;fillColor=#F9F7FC;" vertex="1" parent="1">
                    <mxGeometry x="340" y="160" width="140" height="70" as="geometry"/>
                </mxCell>
                <mxCell id="53" value="Get templature curve" style="ellipse;whiteSpace=wrap;html=1;labelBackgroundColor=none;strokeColor=#333333;fontColor=#333333;fillColor=#F9F7FC;" vertex="1" parent="1">
                    <mxGeometry x="330" y="240" width="140" height="70" as="geometry"/>
                </mxCell>
                <mxCell id="54" style="edgeStyle=orthogonalEdgeStyle;rounded=0;orthogonalLoop=1;jettySize=auto;html=1;exitX=1;exitY=0.3333333333333333;exitDx=0;exitDy=0;exitPerimeter=0;entryX=0;entryY=0.5;entryDx=0;entryDy=0;labelBackgroundColor=none;strokeColor=#333333;fontColor=#333333;" edge="1" parent="1" source="5" target="53">
                    <mxGeometry relative="1" as="geometry">
                        <mxPoint x="220" y="285" as="sourcePoint"/>
                        <mxPoint x="350" y="375" as="targetPoint"/>
                    </mxGeometry>
                </mxCell>
                <mxCell id="55" style="edgeStyle=orthogonalEdgeStyle;rounded=0;orthogonalLoop=1;jettySize=auto;html=1;entryX=0;entryY=0.5;entryDx=0;entryDy=0;labelBackgroundColor=none;strokeColor=#333333;fontColor=#333333;exitX=1;exitY=0.3333333333333333;exitDx=0;exitDy=0;exitPerimeter=0;" edge="1" parent="1" source="5" target="52">
                    <mxGeometry relative="1" as="geometry">
                        <mxPoint x="220" y="250" as="sourcePoint"/>
                        <mxPoint x="340" y="285" as="targetPoint"/>
                    </mxGeometry>
                </mxCell>
                <mxCell id="56" value="" style="endArrow=classic;html=1;exitX=0;exitY=0.5;exitDx=0;exitDy=0;strokeColor=#333333;" edge="1" parent="1" source="40">
                    <mxGeometry width="50" height="50" relative="1" as="geometry">
                        <mxPoint x="520" y="270" as="sourcePoint"/>
                        <mxPoint x="510" y="270" as="targetPoint"/>
                    </mxGeometry>
                </mxCell>
                <mxCell id="57" value="" style="endArrow=classic;html=1;exitX=0;exitY=0.5;exitDx=0;exitDy=0;strokeColor=#333333;" edge="1" parent="1" source="39">
                    <mxGeometry width="50" height="50" relative="1" as="geometry">
                        <mxPoint x="570.0000000000001" y="300" as="sourcePoint"/>
                        <mxPoint x="510" y="270" as="targetPoint"/>
                    </mxGeometry>
                </mxCell>
                <mxCell id="58" value="" style="endArrow=classic;html=1;strokeColor=#333333;" edge="1" parent="1" target="53">
                    <mxGeometry width="50" height="50" relative="1" as="geometry">
                        <mxPoint x="510" y="270" as="sourcePoint"/>
                        <mxPoint x="530" y="290" as="targetPoint"/>
                    </mxGeometry>
                </mxCell>
                <mxCell id="59" value="" style="endArrow=classic;html=1;strokeColor=#333333;entryX=1.017;entryY=0.579;entryDx=0;entryDy=0;entryPerimeter=0;" edge="1" parent="1" target="52">
                    <mxGeometry width="50" height="50" relative="1" as="geometry">
                        <mxPoint x="510" y="270" as="sourcePoint"/>
                        <mxPoint x="479.7125244527389" y="281.83124888851194" as="targetPoint"/>
                    </mxGeometry>
                </mxCell>
                <mxCell id="60" value="" style="endArrow=classic;html=1;strokeColor=#333333;entryX=0.999;entryY=0.424;entryDx=0;entryDy=0;entryPerimeter=0;" edge="1" parent="1" target="41">
                    <mxGeometry width="50" height="50" relative="1" as="geometry">
                        <mxPoint x="510" y="270" as="sourcePoint"/>
                        <mxPoint x="489.7125244527389" y="291.83124888851194" as="targetPoint"/>
                    </mxGeometry>
                </mxCell>
            </root>
        </mxGraphModel>
    </diagram>
</mxfile>